<REAPER_PROJECT 0.1 "6.14/linux64" 1605145876
  RIPPLE 0
  GROUPOVERRIDE 0 0 0
  AUTOXFADE 1
  ENVATTACH 1
  POOLEDENVATTACH 0
  MIXERUIFLAGS 11 48
  PEAKGAIN 1
  FEEDBACK 0
  PANLAW 1
  PROJOFFS 0 0 0
  MAXPROJLEN 0 600
  GRID 3199 8 1 8 1 0 0 0
  TIMEMODE 1 5 -1 30 0 0 -1
  VIDEO_CONFIG 0 0 256
  PANMODE 3
  CURSOR 3.24324
  ZOOM 31.73735863450941 0 0
  VZOOMEX 6 0
  USE_REC_CFG 0
  RECMODE 1
  SMPTESYNC 0 30 100 40 1000 300 0 0 1 0 0
  LOOP 0
  LOOPGRAN 0 4
  RECORD_PATH "" ""
  <RECORD_CFG
  >
  <APPLYFX_CFG
  >
  RENDER_FILE ""
  RENDER_PATTERN $track
  RENDER_FMT 0 2 44100
  RENDER_1X 0
  RENDER_RANGE 4 0 0 18 1000
  RENDER_RESAMPLE 3 0 1
  RENDER_ADDTOPROJ 0
  RENDER_STEMS 32
  RENDER_DITHER 0
  TIMELOCKMODE 1
  TEMPOENVLOCKMODE 1
  ITEMMIX 0
  DEFPITCHMODE 589824 0
  TAKELANE 1
  SAMPLERATE 44100 0 0
  <RENDER_CFG
    bDNwbYAAAAAAAAAAAgAAAP////8EAAAAgAAAAAAAAAA=
  >
  LOCK 1
  <METRONOME 6 2
    VOL 0.25 0.125
    FREQ 800 1600 1
    BEATLEN 4
    SAMPLES "" ""
    PATTERN 2863311530 2863311529
  >
  GLOBAL_AUTO -1
  TEMPO 120 4 4
  PLAYRATE 1 0 0.25 4
  SELECTION 0.81081 0
  SELECTION2 0.81081 0
  MASTERAUTOMODE 0
  MASTERTRACKHEIGHT 0 0
  MASTERPEAKCOL 16576
  MASTERMUTESOLO 0
  MASTERTRACKVIEW 0 0.6667 0.5 0.5 -1 -1 -1 0 0 0 -1 -1 0
  MASTERHWOUT 0 0 1 0 0 0 0 -1
  MASTER_NCH 2 2
  MASTER_VOLUME 1 0 -1 -1 1
  MASTER_FX 1
  MASTER_SEL 0
  <MASTERPLAYSPEEDENV
    EGUID {C490DFB7-FA17-7A0E-D736-0973B6AB3996}
    ACT 0 -1
    VIS 0 1 1
    LANEHEIGHT 0 0
    ARM 0
    DEFSHAPE 0 -1 -1
  >
  <TEMPOENVEX
    EGUID {AC14F9C6-7A9C-CED9-7C7B-70C346BE2BE0}
    ACT 0 -1
    VIS 1 0 1
    LANEHEIGHT 0 0
    ARM 0
    DEFSHAPE 1 -1 -1
    PT 0.000000000000 74.0000740001 1 262148 0 1
    PT 28.175647500000 70.3000876408 1
    PT 28.389018500000 66.6000666001 1
    PT 28.614243500000 62.9000706577 1
    PT 28.852717000000 59.2000884055 1
    PT 29.106095000000 55.5000555001 1
    PT 29.376365000000 51.8000518001 1
  >
  <PROJBAY
  >
  <TRACK {B3E99784-0C49-DF3A-D9C2-4335DEAAE160}
    NAME "Shire bland"
    PEAKCOL 16576
    BEAT -1
    AUTOMODE 0
    VOLPAN 0.45583759840005 0 -1 -1 1
    MUTESOLO 0 0 0
    IPHASE 0
    PLAYOFFS 0 1
    ISBUS 0 0
    BUSCOMP 0 0 0 0 0
    SHOWINMIX 1 0.6667 0.5 1 0.5 -1 -1 -1
    FREEMODE 0
    SEL 0
    REC 1 5088 1 0 0 0 0
    VU 2
    TRACKHEIGHT 0 0 0 0 -1 0
    INQ 0 0 0 0.5 100 0 0 100
    NCHAN 2
    FX 1
    TRACKID {B3E99784-0C49-DF3A-D9C2-4335DEAAE160}
    PERF 0
    MIDIOUT -1
    MAINSEND 1 0
    <FXCHAIN
      WNDRECT 1066 892 1297 790
      SHOW 0
      LASTSEL 0
      DOCKED 0
      BYPASS 0 0 0
      <VST "VSTi: Carla-Rack (falkTX)" CarlaRack.so 0 "" 1131572323<56535443726C636361726C612D726163> ""
        Y2xyQ+5e7f4CAAAAAQAAAAAAAAACAAAAAAAAAAIAAAABAAAAAAAAAAIAAAAAAAAALQUAAAEAAAAAABAA
        PD94bWwgdmVyc2lvbj0nMS4wJyBlbmNvZGluZz0nVVRGLTgnPz4KPCFET0NUWVBFIENBUkxBLVBST0pFQ1Q+CjxDQVJMQS1QUk9KRUNUIFZFUlNJT049JzIuMic+CiA8
        RW5naW5lU2V0dGluZ3M+CiAgPEZvcmNlU3RlcmVvPmZhbHNlPC9Gb3JjZVN0ZXJlbz4KICA8UHJlZmVyUGx1Z2luQnJpZGdlcz5mYWxzZTwvUHJlZmVyUGx1Z2luQnJp
        ZGdlcz4KICA8UHJlZmVyVWlCcmlkZ2VzPnRydWU8L1ByZWZlclVpQnJpZGdlcz4KICA8VUlzQWx3YXlzT25Ub3A+ZmFsc2U8L1VJc0Fsd2F5c09uVG9wPgogIDxNYXhQ
        YXJhbWV0ZXJzPjIwMDwvTWF4UGFyYW1ldGVycz4KICA8VUlCcmlkZ2VzVGltZW91dD40MDAwPC9VSUJyaWRnZXNUaW1lb3V0PgogIDxMQURTUEFfUEFUSD4vaG9tZS9w
        YXVsLy5sYWRzcGE6L3Vzci9saWIvbGFkc3BhOi91c3IvbG9jYWwvbGliL2xhZHNwYTwvTEFEU1BBX1BBVEg+CiAgPERTU0lfUEFUSD4vaG9tZS9wYXVsLy5kc3NpOi91
        c3IvbGliL2Rzc2k6L3Vzci9sb2NhbC9saWIvZHNzaTwvRFNTSV9QQVRIPgogIDxMVjJfUEFUSD4vaG9tZS9wYXVsLy5sdjI6L3Vzci9saWIvbHYyOi91c3IvbG9jYWwv
        bGliL2x2MjwvTFYyX1BBVEg+CiAgPFZTVDJfUEFUSD4vaG9tZS9wYXVsLy52c3Q6L3Vzci9saWIvdnN0Oi91c3IvbG9jYWwvbGliL3ZzdC9ob21lL3BhdWwvLmx4dnN0
        Oi91c3IvbGliL2x4dnN0Oi91c3IvbG9jYWwvbGliL2x4dnN0PC9WU1QyX1BBVEg+CiAgPFZTVDNfUEFUSD4vaG9tZS9wYXVsLy52c3QzOi91c3IvbGliL3ZzdDM6L3Vz
        ci9sb2NhbC9saWIvdnN0MzwvVlNUM19QQVRIPgogIDxTRjJfUEFUSD4vaG9tZS9wYXVsLy5zb3VuZHMvc2YyL2hvbWUvcGF1bC8uc291bmRzL3NmMzovdXNyL3NoYXJl
        L3NvdW5kcy9zZjI6L3Vzci9zaGFyZS9zb3VuZHMvc2YzOi91c3Ivc2hhcmUvc291bmRmb250czwvU0YyX1BBVEg+CiAgPFNGWl9QQVRIPi9ob21lL3BhdWwvLnNvdW5k
        cy9zZno6L3Vzci9zaGFyZS9zb3VuZHMvc2Z6PC9TRlpfUEFUSD4KIDwvRW5naW5lU2V0dGluZ3M+CgogPCEtLSBWU1VwcmlnaHQxIC0tPgogPFBsdWdpbj4KICA8SW5m
        bz4KICAgPFR5cGU+U0ZaPC9UeXBlPgogICA8TmFtZT5WU1VwcmlnaHQxPC9OYW1lPgogICA8RmlsZW5hbWU+L2hvbWUvcGF1bC9vcHQvVlNDTy0yLUNFLTEuMS4wL1ZT
        VXByaWdodDEuc2Z6PC9GaWxlbmFtZT4KICA8L0luZm8+CgogIDxEYXRhPgogICA8QWN0aXZlPlllczwvQWN0aXZlPgogICA8Q29udHJvbENoYW5uZWw+MTwvQ29udHJv
        bENoYW5uZWw+CiAgIDxPcHRpb25zPjB4MWYwPC9PcHRpb25zPgogIDwvRGF0YT4KIDwvUGx1Z2luPgo8L0NBUkxBLVBST0pFQ1Q+CgA=
        AERlZmF1bHQAEAAAAA==
      >
      PRESETNAME Default
      FLOATPOS 0 0 0 0
      FXID {A8FF24AD-B405-DBAD-D831-37FEA2868069}
      WAK 0 0
    >
    <ITEM
      POSITION 0
      SNAPOFFS 0
      LENGTH 34.009565
      LOOP 1
      ALLTAKES 0
      FADEIN 1 0 0 1 0 0
      FADEOUT 1 0 0 1 0 0
      MUTE 0 0
      SEL 0
      IGUID {50C107BD-AE23-846D-B7FF-1ACDA85B67D8}
      IID 43
      NAME "Piano - shire.mid"
      VOLPAN 1 0 1 -1
      SOFFS 0 0
      PLAYRATE 1 1 0 -1 0 0.0025
      CHANMODE 0
      GUID {F3EEA345-B707-08C5-CD59-FD5380CBF5F4}
      <SOURCE MIDI
        HASDATA 1 480 QN
        CCINTERP 32
        POOLEDEVTS {F6E9D3A4-BF52-A9B7-40AB-4F4C5C1436D1}
        <X 0 0 0 0 3 Piano
          /wNQaWFubw==
        >
        E 0 c0 00 00
        E 0 b0 00 00
        E 0 b0 20 00
        E 0 c0 08 00
        E 0 b0 07 64
        E 0 b0 0a 40
        E 0 b0 13 00
        E 0 b0 19 00
        E 0 b0 14 00
        E 0 b0 0f 00
        E 0 b0 18 00
        E 0 b0 10 00
        E 0 b0 12 00
        E 0 b0 0b 40
        E 1440 b0 0b 34
        E 0 90 3e 34
        E 204 80 3e 00
        E 36 90 40 34
        E 204 80 40 00
        E 36 90 42 34
        E 0 90 39 34
        E 0 90 36 34
        E 0 90 32 34
        E 90 b0 0b 35
        E 60 b0 0b 36
        E 90 b0 0b 37
        E 90 b0 0b 38
        E 90 b0 0b 39
        E 15 80 42 00
        E 45 b0 0b 3a
        E 0 90 45 3a
        E 90 b0 0b 3b
        E 60 b0 0b 3c
        E 90 b0 0b 3d
        E 60 b0 0b 3e
        E 90 b0 0b 3f
        E 45 80 39 00
        E 0 80 36 00
        E 0 80 32 00
        E 0 80 45 00
        E 15 b0 0b 40
        E 30 90 42 40
        E 0 90 39 40
        E 0 90 36 40
        E 0 90 31 40
        E 60 b0 0b 41
        E 60 b0 0b 42
        E 90 b0 0b 43
        E 60 b0 0b 44
        E 90 b0 0b 45
        E 60 b0 0b 46
        E 15 80 42 00
        E 45 90 40 46
        E 30 b0 0b 47
        E 60 b0 0b 48
        E 90 b0 0b 49
        E 90 b0 0b 4a
        E 90 b0 0b 4b
        E 60 b0 0b 4c
        E 15 80 39 00
        E 0 80 36 00
        E 0 80 31 00
        E 0 80 40 00
        E 45 90 3e 4c
        E 0 90 3b 4c
        E 0 90 37 4c
        E 0 90 32 4c
        E 90 b0 0b 4b
        E 60 b0 0b 4a
        E 90 b0 0b 49
        E 90 b0 0b 48
        E 90 b0 0b 47
        E 60 b0 0b 46
        E 90 b0 0b 45
        E 60 b0 0b 44
        E 90 b0 0b 43
        E 60 b0 0b 42
        E 90 b0 0b 41
        E 45 80 3b 00
        E 0 80 37 00
        E 0 80 32 00
        E 15 b0 0b 40
        E 30 90 39 40
        E 0 90 36 40
        E 0 90 32 40
        E 60 b0 0b 3f
        E 60 b0 0b 3e
        E 90 b0 0b 3d
        E 60 b0 0b 3c
        E 90 b0 0b 3b
        E 60 b0 0b 3a
        E 15 80 3e 00
        E 45 90 42 4c
        E 30 b0 0b 39
        E 60 b0 0b 38
        E 90 b0 0b 37
        E 24 80 42 00
        E 36 90 45 4c
        E 30 b0 0b 36
        E 90 b0 0b 35
        E 60 b0 0b 34
        E 15 80 39 00
        E 0 80 36 00
        E 0 80 32 00
        E 9 80 45 00
        E 36 90 47 4c
        E 0 90 3b 4c
        E 0 90 37 4c
        E 0 90 32 4c
        E 30 b0 0b 4d
        E 60 b0 0b 4e
        E 90 b0 0b 4f
        E 60 b0 0b 50
        E 90 b0 0b 51
        E 90 b0 0b 52
        E 15 80 47 00
        E 45 b0 0b 53
        E 0 90 4a 53
        E 90 b0 0b 54
        E 60 b0 0b 55
        E 90 b0 0b 56
        E 90 b0 0b 57
        E 90 b0 0b 58
        E 15 80 3b 00
        E 0 80 37 00
        E 0 80 32 00
        E 0 80 4a 00
        E 45 90 49 58
        E 0 90 3d 58
        E 0 90 39 58
        E 0 90 34 58
        E 30 b0 0b 59
        E 60 b0 0b 5a
        E 90 b0 0b 5b
        E 90 b0 0b 5c
        E 90 b0 0b 5d
        E 75 80 49 00
        E 45 b0 0b 5e
        E 0 90 45 5e
        E 90 b0 0b 5f
        E 90 b0 0b 60
        E 150 b0 0b 5f
        E 90 b0 0b 5e
        E 15 80 3d 00
        E 0 80 39 00
        E 0 80 34 00
        E 0 80 45 00
        E 45 90 42 5e
        E 0 90 39 5e
        E 0 90 36 5e
        E 0 90 32 5e
        E 30 b0 0b 5d
        E 120 b0 0b 5c
        E 90 b0 0b 5b
        E 90 b0 0b 5a
        E 90 b0 0b 59
        E 15 80 42 00
        E 45 b0 0b 58
        E 0 90 43 58
        E 90 b0 0b 57
        E 90 b0 0b 56
        E 24 80 43 00
        E 36 90 42 56
        E 30 b0 0b 55
        E 90 b0 0b 54
        E 60 b0 0b 53
        E 15 80 39 00
        E 0 80 36 00
        E 0 80 32 00
        E 9 80 42 00
        E 36 90 40 53
        E 0 90 39 53
        E 0 90 34 53
        E 0 90 31 53
        E 30 b0 0b 52
        E 60 b0 0b 51
        E 90 b0 0b 50
        E 90 b0 0b 4f
        E 60 b0 0b 4e
        E 90 b0 0b 4d
        E 15 80 40 00
        E 45 b0 0b 4c
        E 0 90 3e 34
        E 204 80 3e 00
        E 36 b0 0b 34
        E 0 90 40 34
        E 195 80 39 00
        E 0 80 34 00
        E 0 80 31 00
        E 9 80 40 00
        E 36 90 42 34
        E 0 90 39 34
        E 0 90 36 34
        E 0 90 32 34
        E 90 b0 0b 35
        E 60 b0 0b 36
        E 90 b0 0b 37
        E 90 b0 0b 38
        E 90 b0 0b 39
        E 15 80 42 00
        E 45 b0 0b 3a
        E 0 90 45 34
        E 90 b0 0b 3b
        E 60 b0 0b 3c
        E 90 b0 0b 3d
        E 60 b0 0b 3e
        E 90 b0 0b 3f
        E 45 80 39 00
        E 0 80 36 00
        E 0 80 32 00
        E 0 80 45 00
        E 15 b0 0b 40
        E 30 90 42 34
        E 0 90 39 34
        E 0 90 36 34
        E 0 90 31 34
        E 60 b0 0b 41
        E 60 b0 0b 42
        E 90 b0 0b 43
        E 60 b0 0b 44
        E 90 b0 0b 45
        E 60 b0 0b 46
        E 15 80 42 00
        E 45 90 40 34
        E 30 b0 0b 47
        E 60 b0 0b 48
        E 90 b0 0b 49
        E 90 b0 0b 4a
        E 90 b0 0b 4b
        E 60 b0 0b 4c
        E 15 80 39 00
        E 0 80 36 00
        E 0 80 31 00
        E 0 80 40 00
        E 45 90 3e 34
        E 0 90 3b 34
        E 0 90 37 34
        E 0 90 32 34
        E 30 b0 0b 5d
        E 120 b0 0b 5c
        E 90 b0 0b 5b
        E 90 b0 0b 5a
        E 90 b0 0b 59
        E 60 b0 0b 58
        E 90 b0 0b 57
        E 90 b0 0b 56
        E 90 b0 0b 55
        E 90 b0 0b 54
        E 60 b0 0b 53
        E 15 80 3b 00
        E 0 80 37 00
        E 0 80 32 00
        E 45 90 39 34
        E 0 90 36 34
        E 0 90 32 34
        E 30 b0 0b 52
        E 60 b0 0b 51
        E 90 b0 0b 50
        E 90 b0 0b 4f
        E 60 b0 0b 4e
        E 90 b0 0b 4d
        E 15 80 3e 00
        E 45 b0 0b 4c
        E 0 90 42 34
        E 30 b0 0b 35
        E 30 b0 0b 37
        E 30 b0 0b 38
        E 30 b0 0b 3a
        E 30 b0 0b 3b
        E 30 b0 0b 3d
        E 24 80 42 00
        E 6 b0 0b 3e
        E 30 b0 0b 40
        E 0 90 45 40
        E 30 b0 0b 42
        E 30 b0 0b 43
        E 30 b0 0b 45
        E 30 b0 0b 46
        E 30 b0 0b 48
        E 30 b0 0b 49
        E 15 80 39 00
        E 0 80 36 00
        E 0 80 32 00
        E 9 80 45 00
        E 6 b0 0b 4b
        E 30 b0 0b 4c
        E 0 90 47 4c
        E 0 90 3b 4c
        E 0 90 37 4c
        E 0 90 32 4c
        E 30 b0 0b 4e
        E 30 b0 0b 4f
        E 30 b0 0b 51
        E 30 b0 0b 52
        E 30 b0 0b 53
        E 30 b0 0b 55
        E 30 b0 0b 56
        E 30 b0 0b 57
        E 30 b0 0b 58
        E 30 b0 0b 5a
        E 30 b0 0b 5b
        E 30 b0 0b 5c
        E 30 b0 0b 5d
        E 30 b0 0b 5e
        E 30 b0 0b 5f
        E 30 b0 0b 60
        E 30 b0 0b 5f
        E 30 b0 0b 5e
        E 30 b0 0b 5d
        E 30 b0 0b 5c
        E 30 b0 0b 5b
        E 30 b0 0b 5a
        E 30 b0 0b 58
        E 30 b0 0b 57
        E 30 b0 0b 56
        E 30 b0 0b 55
        E 30 b0 0b 53
        E 30 b0 0b 52
        E 30 b0 0b 51
        E 30 b0 0b 4f
        E 30 b0 0b 4e
        E 30 b0 0b 4c
        E 195 80 47 00
        E 45 90 47 4c
        E 30 b0 0b 4b
        E 30 b0 0b 4a
        E 30 b0 0b 49
        E 30 b0 0b 48
        E 30 b0 0b 47
        E 30 b0 0b 46
        E 24 80 47 00
        E 6 b0 0b 45
        E 30 b0 0b 44
        E 0 90 45 44
        E 30 b0 0b 43
        E 30 b0 0b 42
        E 30 b0 0b 41
        E 30 b0 0b 40
        E 30 b0 0b 3f
        E 30 b0 0b 3e
        E 24 80 45 00
        E 6 b0 0b 3d
        E 30 b0 0b 3c
        E 0 90 42 3c
        E 30 b0 0b 3b
        E 30 b0 0b 3a
        E 30 b0 0b 39
        E 30 b0 0b 38
        E 30 b0 0b 37
        E 30 b0 0b 36
        E 15 80 3b 00
        E 0 80 37 00
        E 0 80 32 00
        E 9 80 42 00
        E 6 b0 0b 35
        E 30 b0 0b 34
        E 0 90 40 34
        E 0 90 39 34
        E 0 90 34 34
        E 0 90 31 34
        E 1155 80 40 00
        E 45 90 40 34
        E 204 80 40 00
        E 36 90 3e 34
        E 204 80 3e 00
        E 36 90 3d 34
        E 195 80 39 00
        E 0 80 34 00
        E 0 80 31 00
        E 9 80 3d 00
        E 36 90 3e 34
        E 0 90 39 34
        E 0 90 36 34
        E 0 90 32 34
        E 1888 80 3e 00
        E 0 80 39 00
        E 0 80 36 00
        E 0 80 32 00
        E 32 b0 7b 00
        CCINTERP 32
        CHASE_CC_TAKEOFFS 1
        GUID {64436733-375F-C4E9-030E-16CFA4883606}
        IGNTEMPO 0 120 4 4
        SRCCOLOR 54
        VELLANE -1 293 0
        CFGEDITVIEW 0 0.045365 53 12 0 -1 0 0 0 0.5
        KEYSNAP 0
        TRACKSEL 0
        EVTFILTER 0 -1 -1 -1 -1 0 0 0 0 -1 -1 -1 -1 0 -1 0 -1 -1
        CFGEDIT 1 1 0 1 0 0 1 1 1 1 1 0.125 701 212 1858 1461 0 0 0 0 0 0 0 0 0 0.5 0 0 1 64
      >
    >
  >
  <TRACK {52222B9E-696C-58EE-272C-07CE96D9939A}
    NAME "Shire nn"
    PEAKCOL 16576
    BEAT -1
    AUTOMODE 0
    VOLPAN 0.49866990604774 0 -1 -1 1
    MUTESOLO 0 2 0
    IPHASE 0
    PLAYOFFS 0 1
    ISBUS 0 0
    BUSCOMP 0 0 0 0 0
    SHOWINMIX 1 0.6667 0.5 1 0.5 -1 -1 -1
    FREEMODE 0
    SEL 1
    REC 1 5088 1 0 0 0 0
    VU 2
    TRACKHEIGHT 0 0 0 0 -1 0
    INQ 0 0 0 0.5 100 0 0 100
    NCHAN 2
    FX 1
    TRACKID {52222B9E-696C-58EE-272C-07CE96D9939A}
    PERF 0
    MIDIOUT -1
    MAINSEND 1 0
    <FXCHAIN
      WNDRECT 537 627 1297 790
      SHOW 0
      LASTSEL 0
      DOCKED 0
      BYPASS 0 0 0
      <VST "VSTi: Carla-Rack (falkTX)" CarlaRack.so 0 "" 1131572323<56535443726C636361726C612D726163> ""
        Y2xyQ+5e7f4CAAAAAQAAAAAAAAACAAAAAAAAAAIAAAABAAAAAAAAAAIAAAAAAAAALQUAAAEAAAAAABAA
        PD94bWwgdmVyc2lvbj0nMS4wJyBlbmNvZGluZz0nVVRGLTgnPz4KPCFET0NUWVBFIENBUkxBLVBST0pFQ1Q+CjxDQVJMQS1QUk9KRUNUIFZFUlNJT049JzIuMic+CiA8
        RW5naW5lU2V0dGluZ3M+CiAgPEZvcmNlU3RlcmVvPmZhbHNlPC9Gb3JjZVN0ZXJlbz4KICA8UHJlZmVyUGx1Z2luQnJpZGdlcz5mYWxzZTwvUHJlZmVyUGx1Z2luQnJp
        ZGdlcz4KICA8UHJlZmVyVWlCcmlkZ2VzPnRydWU8L1ByZWZlclVpQnJpZGdlcz4KICA8VUlzQWx3YXlzT25Ub3A+ZmFsc2U8L1VJc0Fsd2F5c09uVG9wPgogIDxNYXhQ
        YXJhbWV0ZXJzPjIwMDwvTWF4UGFyYW1ldGVycz4KICA8VUlCcmlkZ2VzVGltZW91dD40MDAwPC9VSUJyaWRnZXNUaW1lb3V0PgogIDxMQURTUEFfUEFUSD4vaG9tZS9w
        YXVsLy5sYWRzcGE6L3Vzci9saWIvbGFkc3BhOi91c3IvbG9jYWwvbGliL2xhZHNwYTwvTEFEU1BBX1BBVEg+CiAgPERTU0lfUEFUSD4vaG9tZS9wYXVsLy5kc3NpOi91
        c3IvbGliL2Rzc2k6L3Vzci9sb2NhbC9saWIvZHNzaTwvRFNTSV9QQVRIPgogIDxMVjJfUEFUSD4vaG9tZS9wYXVsLy5sdjI6L3Vzci9saWIvbHYyOi91c3IvbG9jYWwv
        bGliL2x2MjwvTFYyX1BBVEg+CiAgPFZTVDJfUEFUSD4vaG9tZS9wYXVsLy52c3Q6L3Vzci9saWIvdnN0Oi91c3IvbG9jYWwvbGliL3ZzdC9ob21lL3BhdWwvLmx4dnN0
        Oi91c3IvbGliL2x4dnN0Oi91c3IvbG9jYWwvbGliL2x4dnN0PC9WU1QyX1BBVEg+CiAgPFZTVDNfUEFUSD4vaG9tZS9wYXVsLy52c3QzOi91c3IvbGliL3ZzdDM6L3Vz
        ci9sb2NhbC9saWIvdnN0MzwvVlNUM19QQVRIPgogIDxTRjJfUEFUSD4vaG9tZS9wYXVsLy5zb3VuZHMvc2YyL2hvbWUvcGF1bC8uc291bmRzL3NmMzovdXNyL3NoYXJl
        L3NvdW5kcy9zZjI6L3Vzci9zaGFyZS9zb3VuZHMvc2YzOi91c3Ivc2hhcmUvc291bmRmb250czwvU0YyX1BBVEg+CiAgPFNGWl9QQVRIPi9ob21lL3BhdWwvLnNvdW5k
        cy9zZno6L3Vzci9zaGFyZS9zb3VuZHMvc2Z6PC9TRlpfUEFUSD4KIDwvRW5naW5lU2V0dGluZ3M+CgogPCEtLSBWU1VwcmlnaHQxIC0tPgogPFBsdWdpbj4KICA8SW5m
        bz4KICAgPFR5cGU+U0ZaPC9UeXBlPgogICA8TmFtZT5WU1VwcmlnaHQxPC9OYW1lPgogICA8RmlsZW5hbWU+L2hvbWUvcGF1bC9vcHQvVlNDTy0yLUNFLTEuMS4wL1ZT
        VXByaWdodDEuc2Z6PC9GaWxlbmFtZT4KICA8L0luZm8+CgogIDxEYXRhPgogICA8QWN0aXZlPlllczwvQWN0aXZlPgogICA8Q29udHJvbENoYW5uZWw+MTwvQ29udHJv
        bENoYW5uZWw+CiAgIDxPcHRpb25zPjB4MWYwPC9PcHRpb25zPgogIDwvRGF0YT4KIDwvUGx1Z2luPgo8L0NBUkxBLVBST0pFQ1Q+CgA=
        AERlZmF1bHQAEAAAAA==
      >
      PRESETNAME Default
      FLOATPOS 0 0 0 0
      FXID {AB9BD428-253F-C5B4-5A8D-A9B8538361E1}
      WAK 0 0
    >
    <ITEM
      POSITION 0
      SNAPOFFS 0
      LENGTH 34.009565
      LOOP 1
      ALLTAKES 0
      FADEIN 1 0 0 1 0 0
      FADEOUT 1 0 0 1 0 0
      MUTE 0 0
      SEL 1
      IGUID {899A79D4-0570-5671-0901-478CC4415097}
      IID 44
      NAME "Piano - shire.mid"
      VOLPAN 1 0 1 -1
      SOFFS 0 0
      PLAYRATE 1 1 0 -1 0 0.0025
      CHANMODE 0
      GUID {30B291BF-0B05-F61A-624B-F179DB8F93DA}
      <SOURCE MIDI
        HASDATA 1 480 QN
        CCINTERP 32
        POOLEDEVTS {CFF483B9-275F-B2FD-A590-DEB580836C86}
        <X 0 0 0 0 3 Piano
          /wNQaWFubw==
        >
        E 0 c0 08 00
        E 0 b0 00 00
        E 0 b0 20 00
        E 0 b0 07 64
        E 0 b0 0a 40
        E 0 b0 0b 40
        E 0 b0 0f 00
        E 0 b0 10 00
        E 0 b0 12 00
        E 0 b0 13 00
        E 0 b0 14 00
        E 0 b0 18 00
        E 0 b0 19 00
        E 1440 b0 0b 34
        E 0 90 3e 34
        E 204 90 3e 00
        E 36 90 40 39
        E 204 90 40 00
        E 36 90 32 2b
        E 0 90 36 2b
        E 0 90 39 2c
        E 0 90 42 2d
        E 90 b0 0b 35
        E 60 b0 0b 36
        E 90 b0 0b 37
        E 90 b0 0b 38
        E 90 b0 0b 39
        E 15 90 42 00
        E 45 b0 0b 3a
        E 0 90 45 2b
        E 90 b0 0b 3b
        E 60 b0 0b 3c
        E 90 b0 0b 3d
        E 60 b0 0b 3e
        E 90 b0 0b 3f
        E 45 90 32 00
        E 0 90 36 00
        E 0 90 39 00
        E 0 90 45 00
        E 15 b0 0b 40
        E 30 90 31 3c
        E 0 90 36 3b
        E 0 90 39 3b
        E 0 90 42 3d
        E 60 b0 0b 41
        E 60 b0 0b 42
        E 90 b0 0b 43
        E 60 b0 0b 44
        E 90 b0 0b 45
        E 60 b0 0b 46
        E 15 90 42 00
        E 45 90 40 3c
        E 30 b0 0b 47
        E 60 b0 0b 48
        E 90 b0 0b 49
        E 90 b0 0b 4a
        E 90 b0 0b 4b
        E 60 b0 0b 4c
        E 15 90 31 00
        E 0 90 36 00
        E 0 90 39 00
        E 0 90 40 00
        E 45 90 32 4c
        E 0 90 37 4a
        E 0 90 3b 3e
        E 0 90 3e 4d
        E 90 b0 0b 4b
        E 60 b0 0b 4a
        E 90 b0 0b 49
        E 90 b0 0b 48
        E 90 b0 0b 47
        E 60 b0 0b 46
        E 90 b0 0b 45
        E 60 b0 0b 44
        E 90 b0 0b 43
        E 60 b0 0b 42
        E 90 b0 0b 41
        E 45 90 32 00
        E 0 90 37 00
        E 0 90 3b 00
        E 15 b0 0b 40
        E 30 90 32 3e
        E 0 90 36 40
        E 0 90 39 4d
        E 60 b0 0b 3f
        E 60 b0 0b 3e
        E 90 b0 0b 3d
        E 60 b0 0b 3c
        E 90 b0 0b 3b
        E 60 b0 0b 3a
        E 15 90 3e 00
        E 45 90 42 4c
        E 30 b0 0b 39
        E 60 b0 0b 38
        E 90 b0 0b 37
        E 24 90 42 00
        E 36 90 45 3e
        E 30 b0 0b 36
        E 90 b0 0b 35
        E 60 b0 0b 34
        E 15 90 32 00
        E 0 90 36 00
        E 0 90 39 00
        E 9 90 45 00
        E 36 90 32 4d
        E 0 90 37 4c
        E 0 90 3b 4c
        E 0 90 47 4c
        E 30 b0 0b 4d
        E 60 b0 0b 4e
        E 90 b0 0b 4f
        E 60 b0 0b 50
        E 90 b0 0b 51
        E 90 b0 0b 52
        E 15 90 47 00
        E 45 b0 0b 53
        E 0 90 4a 4e
        E 90 b0 0b 54
        E 60 b0 0b 55
        E 90 b0 0b 56
        E 90 b0 0b 57
        E 90 b0 0b 58
        E 15 90 32 00
        E 0 90 37 00
        E 0 90 3b 00
        E 0 90 4a 00
        E 45 90 34 54
        E 0 90 39 53
        E 0 90 3d 53
        E 0 90 49 4e
        E 30 b0 0b 59
        E 60 b0 0b 5a
        E 90 b0 0b 5b
        E 90 b0 0b 5c
        E 90 b0 0b 5d
        E 75 90 49 00
        E 45 b0 0b 5e
        E 0 90 45 54
        E 90 b0 0b 5f
        E 90 b0 0b 60
        E 150 b0 0b 5f
        E 90 b0 0b 5e
        E 15 90 34 00
        E 0 90 39 00
        E 0 90 3d 00
        E 0 90 45 00
        E 45 90 32 54
        E 0 90 36 54
        E 0 90 39 54
        E 0 90 42 54
        E 30 b0 0b 5d
        E 120 b0 0b 5c
        E 90 b0 0b 5b
        E 90 b0 0b 5a
        E 90 b0 0b 59
        E 15 90 42 00
        E 45 b0 0b 58
        E 0 90 43 54
        E 90 b0 0b 57
        E 90 b0 0b 56
        E 24 90 43 00
        E 36 90 42 54
        E 30 b0 0b 55
        E 90 b0 0b 54
        E 60 b0 0b 53
        E 15 90 32 00
        E 0 90 36 00
        E 0 90 39 00
        E 9 90 42 00
        E 36 90 31 4d
        E 0 90 34 4d
        E 0 90 39 37
        E 0 90 40 51
        E 30 b0 0b 52
        E 60 b0 0b 51
        E 90 b0 0b 50
        E 90 b0 0b 4f
        E 60 b0 0b 4e
        E 90 b0 0b 4d
        E 15 90 40 00
        E 45 b0 0b 4c
        E 0 90 3e 50
        E 204 90 3e 00
        E 36 b0 0b 34
        E 0 90 40 4e
        E 195 90 31 00
        E 0 90 34 00
        E 0 90 39 00
        E 9 90 40 00
        E 36 90 32 2d
        E 0 90 36 2c
        E 0 90 39 2f
        E 0 90 42 31
        E 90 b0 0b 35
        E 60 b0 0b 36
        E 90 b0 0b 37
        E 90 b0 0b 38
        E 90 b0 0b 39
        E 15 90 42 00
        E 45 b0 0b 3a
        E 0 90 45 2c
        E 90 b0 0b 3b
        E 60 b0 0b 3c
        E 90 b0 0b 3d
        E 60 b0 0b 3e
        E 90 b0 0b 3f
        E 45 90 32 00
        E 0 90 36 00
        E 0 90 39 00
        E 0 90 45 00
        E 15 b0 0b 40
        E 30 90 31 2c
        E 0 90 36 2c
        E 0 90 39 2d
        E 0 90 42 2d
        E 60 b0 0b 41
        E 60 b0 0b 42
        E 90 b0 0b 43
        E 60 b0 0b 44
        E 90 b0 0b 45
        E 60 b0 0b 46
        E 15 90 42 00
        E 45 90 40 2b
        E 30 b0 0b 47
        E 60 b0 0b 48
        E 90 b0 0b 49
        E 90 b0 0b 4a
        E 90 b0 0b 4b
        E 60 b0 0b 4c
        E 15 90 31 00
        E 0 90 36 00
        E 0 90 39 00
        E 0 90 40 00
        E 45 90 32 2c
        E 0 90 37 2b
        E 0 90 3b 2d
        E 0 90 3e 2b
        E 30 b0 0b 5d
        E 120 b0 0b 5c
        E 90 b0 0b 5b
        E 90 b0 0b 5a
        E 90 b0 0b 59
        E 60 b0 0b 58
        E 90 b0 0b 57
        E 90 b0 0b 56
        E 90 b0 0b 55
        E 90 b0 0b 54
        E 60 b0 0b 53
        E 15 90 32 00
        E 0 90 37 00
        E 0 90 3b 00
        E 45 90 32 2c
        E 0 90 36 2c
        E 0 90 39 2c
        E 30 b0 0b 52
        E 60 b0 0b 51
        E 90 b0 0b 50
        E 90 b0 0b 4f
        E 60 b0 0b 4e
        E 90 b0 0b 4d
        E 15 90 3e 00
        E 45 b0 0b 4c
        E 0 90 42 2c
        E 30 b0 0b 35
        E 30 b0 0b 37
        E 30 b0 0b 38
        E 30 b0 0b 3a
        E 30 b0 0b 3b
        E 30 b0 0b 3d
        E 24 90 42 00
        E 6 b0 0b 3e
        E 30 b0 0b 40
        E 0 90 45 2b
        E 30 b0 0b 42
        E 30 b0 0b 43
        E 30 b0 0b 45
        E 30 b0 0b 46
        E 30 b0 0b 48
        E 30 b0 0b 49
        E 15 90 32 00
        E 0 90 36 00
        E 0 90 39 00
        E 9 90 45 00
        E 6 b0 0b 4b
        E 30 b0 0b 4c
        E 0 90 32 49
        E 0 90 37 4a
        E 0 90 3b 3f
        E 0 90 47 3d
        E 30 b0 0b 4e
        E 30 b0 0b 4f
        E 30 b0 0b 51
        E 30 b0 0b 52
        E 30 b0 0b 53
        E 30 b0 0b 55
        E 30 b0 0b 56
        E 30 b0 0b 57
        E 30 b0 0b 58
        E 30 b0 0b 5a
        E 30 b0 0b 5b
        E 30 b0 0b 5c
        E 30 b0 0b 5d
        E 30 b0 0b 5e
        E 30 b0 0b 5f
        E 30 b0 0b 60
        E 30 b0 0b 5f
        E 30 b0 0b 5e
        E 30 b0 0b 5d
        E 30 b0 0b 5c
        E 30 b0 0b 5b
        E 30 b0 0b 5a
        E 30 b0 0b 58
        E 30 b0 0b 57
        E 30 b0 0b 56
        E 30 b0 0b 55
        E 30 b0 0b 53
        E 30 b0 0b 52
        E 30 b0 0b 51
        E 30 b0 0b 4f
        E 30 b0 0b 4e
        E 30 b0 0b 4c
        E 195 90 47 00
        E 45 90 47 48
        E 30 b0 0b 4b
        E 30 b0 0b 4a
        E 30 b0 0b 49
        E 30 b0 0b 48
        E 30 b0 0b 47
        E 30 b0 0b 46
        E 24 90 47 00
        E 6 b0 0b 45
        E 30 b0 0b 44
        E 0 90 45 4a
        E 30 b0 0b 43
        E 30 b0 0b 42
        E 30 b0 0b 41
        E 30 b0 0b 40
        E 30 b0 0b 3f
        E 30 b0 0b 3e
        E 24 90 45 00
        E 6 b0 0b 3d
        E 30 b0 0b 3c
        E 0 90 42 4a
        E 30 b0 0b 3b
        E 30 b0 0b 3a
        E 30 b0 0b 39
        E 30 b0 0b 38
        E 30 b0 0b 37
        E 30 b0 0b 36
        E 15 90 32 00
        E 0 90 37 00
        E 0 90 3b 00
        E 9 90 42 00
        E 6 b0 0b 35
        E 30 b0 0b 34
        E 0 90 31 2c
        E 0 90 34 2d
        E 0 90 39 2e
        E 0 90 40 40
        E 1155 90 40 00
        E 45 90 40 2e
        E 204 90 40 00
        E 36 90 3e 2e
        E 204 90 3e 00
        E 36 90 3d 2b
        E 195 90 31 00
        E 0 90 34 00
        E 0 90 39 00
        E 9 90 3d 00
        E 36 90 32 2b
        E 0 90 36 2c
        E 0 90 39 2a
        E 0 90 3e 2c
        E 1888 90 32 00
        E 0 90 36 00
        E 0 90 39 00
        E 0 90 3e 00
        E 32 b0 7b 00
        CCINTERP 32
        CHASE_CC_TAKEOFFS 1
        GUID {37E84CA2-4358-69C8-6173-738261B1CACF}
        IGNTEMPO 0 120 4 4
        SRCCOLOR 55
        VELLANE -1 302 0
        CFGEDITVIEW 0 0.045365 53 12 0 -1 0 0 0 0.5
        KEYSNAP 0
        TRACKSEL 0
        EVTFILTER 0 -1 -1 -1 -1 0 0 0 0 -1 -1 -1 -1 0 -1 0 -1 -1
        CFGEDIT 1 1 0 1 0 0 1 1 1 1 1 0.125 2105 212 3306 1461 0 0 0 0 0 0 0 0 0 0.5 0 0 1 64
      >
    >
  >
>
